<?xml version="1.0" encoding="UTF-8" standalone="no"?>
<!-- Created with Inkscape (http://www.inkscape.org/) -->

<svg
   width="32"
   height="32"
   viewBox="0 0 8.4666666 8.4666666"
   version="1.1"
   id="svg5"
   xml:space="preserve"
   inkscape:version="1.2 (dc2aeda, 2022-05-15)"
   sodipodi:docname="favicon-heat.svg"
   xmlns:inkscape="http://www.inkscape.org/namespaces/inkscape"
   xmlns:sodipodi="http://sodipodi.sourceforge.net/DTD/sodipodi-0.dtd"
   xmlns="http://www.w3.org/2000/svg"
   xmlns:svg="http://www.w3.org/2000/svg"><sodipodi:namedview
     id="namedview7"
     pagecolor="#ffffff"
     bordercolor="#000000"
     borderopacity="0.25"
     inkscape:showpageshadow="2"
     inkscape:pageopacity="0.0"
     inkscape:pagecheckerboard="0"
     inkscape:deskcolor="#d1d1d1"
     inkscape:document-units="mm"
     showgrid="false"
     inkscape:zoom="2.0106501"
     inkscape:cx="134.03625"
     inkscape:cy="-28.34904"
     inkscape:window-width="1728"
     inkscape:window-height="1080"
     inkscape:window-x="0"
     inkscape:window-y="37"
     inkscape:window-maximized="0"
     inkscape:current-layer="layer1" /><defs
     id="defs2" /><g
     inkscape:label="Layer 1"
     inkscape:groupmode="layer"
     id="layer1"><path
       id="path302"
       style="fill:#ffffff;stroke-width:0.0557553"
       d="m 6.7385286,0.95120303 c -0.225931,0 -0.61599,0.21462397 -0.724527,0.39862597 -0.05409,0.0917 -0.202113,0.212034 -0.330887,0.269037 -0.494491,0.218892 -0.545737,0.8918 -0.08688,1.14077 0.227577,0.123483 2.067541,0.123437 2.306348,-5.7e-5 0.203581,-0.105275 0.348129,-0.416031 0.298546,-0.641779 -0.0396,-0.180291 -0.318087,-0.441785 -0.470502,-0.441785 -0.05815,0 -0.128494,-0.06766 -0.167029,-0.160686 C 7.4332796,1.200711 7.0683816,0.95120303 6.7385336,0.95120303 Z m 0.04458,0.27877797 c 0.245853,0 0.55478,0.311258 0.55478,0.558972 0,0.170821 0.0085,0.178078 0.170541,0.145676 0.134389,-0.02688 0.199385,-0.0053 0.306645,0.102007 0.165289,0.16529 0.171577,0.272987 0.02458,0.41998 -0.103014,0.103016 -0.185812,0.111523 -1.08719,0.111523 -0.901377,0 -0.984232,-0.0085 -1.087246,-0.111523 -0.241713,-0.241714 -0.07755,-0.613346 0.270962,-0.613346 0.121012,0 0.188601,-0.03141 0.209735,-0.09753 0.112871,-0.353166 0.313726,-0.515756 0.637191,-0.515756 z m -2.7713,1.231449 c -0.167848,-0.0028 -0.512355,0.188072 -0.582761,0.373253 -0.06356,0.167186 0.0512,0.374719 0.259804,0.469765 0.179578,0.08182 0.17182,0.163104 -0.02634,0.275833 -0.08914,0.05071 -0.190228,0.144773 -0.224631,0.209055 -0.05614,0.104909 -0.04754,0.116903 0.08411,0.116903 0.138183,0 0.449216,-0.175269 0.539432,-0.303982 0.02253,-0.03214 0.04136,-0.127094 0.0418,-0.211037 C 4.1038916,3.271992 4.0524926,3.206 3.8683966,3.089786 3.6557226,2.955532 3.6427336,2.935113 3.7350676,2.880051 3.9602426,2.74577 4.1040726,2.611728 4.1040726,2.536194 c 0,-0.05135 -0.03632,-0.07383 -0.09227,-0.07476 z m 1.694986,0.437029 c -0.09466,0.0035 -0.26746,0.06765 -0.404008,0.162045 -0.187146,0.129368 -0.222989,0.185055 -0.222989,0.346122 0,0.161324 0.03412,0.214031 0.213813,0.33032 l 0.213757,0.138312 -0.130158,0.102121 c -0.278926,0.218802 -0.325278,0.264223 -0.325278,0.318595 0,0.08091 0.203339,0.06931 0.379199,-0.02164 0.401143,-0.207439 0.44018,-0.506199 0.09289,-0.711105 -0.236251,-0.139391 -0.240679,-0.187162 -0.0277,-0.297299 0.144645,-0.0748 0.280421,-0.235436 0.280421,-0.331736 0,-0.02636 -0.02692,-0.03732 -0.06995,-0.03574 z m -3.445081,0.123813 c -0.09553,0.0023 -0.215609,0.04756 -0.337003,0.127892 -0.305384,0.202093 -0.30444,0.414077 0.0028,0.636624 l 0.220836,0.160006 -0.220836,0.177507 c -0.121484,0.09763 -0.220893,0.213948 -0.220893,0.258501 0,0.153431 0.257295,0.08373 0.492535,-0.133442 0.318257,-0.293815 0.301027,-0.408526 -0.10348,-0.690206 -0.13447,-0.09364 -0.135222,-0.09801 -0.02855,-0.162837 0.06029,-0.03664 0.173207,-0.131374 0.250911,-0.210471 l 0.141259,-0.143807 -0.158194,-0.01812 c -0.01258,-0.0014 -0.02572,-0.002 -0.03936,-0.0016 z m 1.592582,1.231846 C 2.7196806,4.247918 1.5970916,4.859421 1.0348516,5.997076 0.85472358,6.361555 0.70550358,6.972899 0.70396558,7.35251 l -9.64e-4,0.24032 -0.121435,-0.01008 0.0052,0.221856 c 0.71370602,0.0039 1.72620902,0.0045 3.26644002,0.0045 1.449614,0 2.425859,-5.48e-4 3.135036,-0.0037 l 0.0023,-0.226443 c -0.02453,-0.02522 -0.04293,-0.120292 -0.04293,-0.23358 0,-0.773149 -0.355993,-1.614573 -0.923049,-2.18163 C 5.4126016,4.551791 4.6306346,4.258337 3.8543196,4.254071 Z m -0.0069,0.263598 c 0.222658,6.58e-4 0.448188,0.0288 0.672478,0.08723 1.231566,0.320782 2.14424,1.474829 2.148099,2.716303 l 8.77e-4,0.264845 H 6.1670266 5.6652596 V 6.914518 6.242891 l -0.376368,0.01648 -0.37631,0.01648 -0.01575,0.658884 c -0.01404,0.5879 -0.02607,0.656879 -0.111523,0.64059 -0.0771,-0.0147 -0.09898,-0.09098 -0.112202,-0.391321 l -0.01642,-0.373082 -0.318086,-0.01665 -0.318143,-0.01665 -0.01535,-0.878135 -0.01535,-0.878134 h -0.556142 -0.55614 V 6.27257 c 0,0.773994 -0.02124,1.264338 -0.05573,1.285653 -0.03599,0.02224 -0.05579,-0.203889 -0.05579,-0.637926 V 6.247988 h -0.527877 -0.527934 l -0.01569,0.655089 -0.01575,0.655145 -0.321258,0.01677 C 0.95838558,7.595782 0.93863658,7.558812 1.0266736,6.954793 1.2333596,5.536722 2.4867336,4.513729 3.8474206,4.51772 Z m 1.455402,0.615159 c -0.130095,0 -0.13939,0.01859 -0.13939,0.278778 0,0.260191 0.0093,0.278779 0.13939,0.278779 0.130093,0 0.139388,-0.01859 0.139388,-0.278779 0,-0.260189 -0.0093,-0.278778 -0.139388,-0.278778 z m -2.14657,0.167255 h 0.306645 0.306701 v 0.864201 0.864201 h 0.306645 0.306644 V 7.307311 7.586089 H 3.7695736 3.1562276 V 6.44311 Z m 0.278778,0.167256 c -0.07434,0 -0.111523,0.03718 -0.111523,0.111523 0,0.07434 0.03718,0.111523 0.111523,0.111523 0.07434,0 0.111523,-0.03718 0.111523,-0.111523 0,-0.07434 -0.03718,-0.111523 -0.111523,-0.111523 z m 0,0.390301 c -0.08177,0 -0.111523,0.03717 -0.111523,0.139389 0,0.102219 0.02975,0.13939 0.111523,0.13939 0.08177,0 0.111523,-0.03717 0.111523,-0.13939 0,-0.102218 -0.02975,-0.139389 -0.111523,-0.139389 z m 1.839925,0.05573 c -0.200719,0 -0.222989,0.01394 -0.222989,0.13939 0,0.125438 0.02227,0.139388 0.222989,0.139388 0.200719,0 0.223046,-0.01394 0.223046,-0.139388 0,-0.12546 -0.02233,-0.13939 -0.223046,-0.13939 z m -1.839925,0.390301 c -0.08177,0 -0.111523,0.03717 -0.111523,0.139389 0,0.102215 0.02975,0.13939 0.111523,0.13939 0.08177,0 0.111523,-0.03718 0.111523,-0.13939 0,-0.102218 -0.02975,-0.139389 -0.111523,-0.139389 z m -1.449624,0.223045 h 0.250912 0.250855 v 0.529633 c 0,0.315948 -0.02248,0.52969 -0.05573,0.52969 -0.03221,0 -0.05573,-0.17656 -0.05573,-0.418167 0,-0.408872 -0.0031,-0.418167 -0.139389,-0.418167 -0.135292,0 -0.139389,0.01139 -0.139389,0.387015 0,0.212849 -0.02512,0.402507 -0.05579,0.421452 -0.03569,0.02206 -0.05573,-0.157425 -0.05573,-0.498538 z m 3.291645,0 c 0.107206,0 0.112718,0.02879 0.09759,0.511225 -0.01474,0.470161 -0.06524,0.619693 -0.172862,0.512076 -0.02108,-0.02108 -0.03834,-0.259944 -0.03834,-0.530824 0,-0.458357 0.0079,-0.492477 0.113619,-0.492477 z m -1.842021,0.222989 c -0.08177,0 -0.111523,0.03717 -0.111523,0.139389 0,0.102219 0.02975,0.139388 0.111523,0.139388 0.08177,0 0.111523,-0.03717 0.111523,-0.139388 0,-0.102217 -0.02975,-0.139389 -0.111523,-0.139389 z m 0.334568,0.446034 c -0.438608,0 -0.446091,0.0023 -0.446091,0.139389 0,0.137076 0.0075,0.139388 0.446091,0.139388 0.438608,0 0.446034,-0.0023 0.446034,-0.139388 0,-0.137065 -0.0074,-0.139389 -0.446034,-0.139389 z" /></g></svg>
